<svg width="1500" height="982" viewBox="0 0 1500 982" fill="none" xmlns="http://www.w3.org/2000/svg">
<g clip-path="url(#clip0_44_35)">
<rect width="1500" height="982" fill="white"/>
<rect x="1131" y="982" width="188.5" height="982" transform="rotate(180 1131 982)" fill="#D9D9D9"/>
<rect x="942.5" y="982" width="188.5" height="982" transform="rotate(180 942.5 982)" fill="#E4E2E2"/>
<rect x="754" y="982" width="188.5" height="982" transform="rotate(180 754 982)" fill="#EAEAEA"/>
<rect x="565.5" y="982" width="188.5" height="982" transform="rotate(180 565.5 982)" fill="#F1F1F1"/>
<rect x="377" y="982" width="188.5" height="982" transform="rotate(180 377 982)" fill="#F6F6F6"/>
<rect x="188.5" y="982" width="188.5" height="982" transform="rotate(180 188.5 982)" fill="white"/>
<rect x="1319.5" y="982" width="188.5" height="982" transform="rotate(180 1319.5 982)" fill="#D0D0D0"/>
<rect x="1508" y="982" width="188.5" height="982" transform="rotate(180 1508 982)" fill="#C8C5C5"/>
</g>
<defs>
<clipPath id="clip0_44_35">
<rect width="1500" height="982" fill="white"/>
</clipPath>
</defs>
</svg>
